<svg xmlns="http://www.w3.org/2000/svg" viewBox="0 0 64 64">
  <defs>
    <linearGradient id="bg" x1="0%" x2="100%" y1="0%" y2="100%">
      <stop offset="0%" stop-color="#102542" />
      <stop offset="100%" stop-color="#2a7f62" />
    </linearGradient>
  </defs>
  <rect width="64" height="64" rx="16" fill="url(#bg)" />
  <path
    d="M32 14a10 10 0 0 1 10 10v8a10 10 0 0 1-20 0v-8a10 10 0 0 1 10-10Zm-18 18a2 2 0 0 1 2 2 16 16 0 0 0 32 0 2 2 0 1 1 4 0A20 20 0 0 1 34 53.8V58a2 2 0 1 1-4 0v-4.2A20 20 0 0 1 12 34a2 2 0 0 1 2-2Z"
    fill="#f4f1de"
  />
</svg>
